<svg width="1000" height="273" viewBox="0 0 1000 273" fill="none" xmlns="http://www.w3.org/2000/svg">
<g clip-path="url(#clip0_4287_142)">
<g clip-path="url(#clip1_4287_142)">
<g clip-path="url(#clip2_4287_142)">
<g clip-path="url(#clip3_4287_142)">
<g clip-path="url(#clip4_4287_142)">
<g clip-path="url(#clip5_4287_142)">
<path d="M0.741211 181.204H109.507V217.902H80.414C80.414 217.902 80.3979 217.918 80.3657 217.95C80.3174 217.998 80.2772 218.023 80.245 218.023C80.1967 218.023 80.1726 218.063 80.1726 218.143C80.1726 221.684 80.1726 225.241 80.1726 228.815C80.1726 232.404 80.1726 235.985 80.1726 239.558C80.1726 243.148 80.1726 246.729 80.1726 250.302C80.1726 253.891 80.1726 257.481 80.1726 261.07C80.1726 264.643 80.1726 268.2 80.1726 271.741H30.0753C30.0753 265.786 30.0753 259.831 30.0753 253.875C30.0753 247.92 30.0753 241.965 30.0753 236.009C30.0753 230.054 30.0753 224.099 30.0753 218.143C30.0753 218.143 30.0753 218.119 30.0753 218.071C30.0753 218.039 30.0592 217.998 30.027 217.95C29.9787 217.918 29.9385 217.902 29.9063 217.902C29.858 217.902 29.8339 217.902 29.8339 217.902H0.741211V181.204ZM113.49 181.204H200.768C207.85 181.204 213.725 182.468 218.393 184.995C223.061 187.538 226.561 190.797 228.895 194.773C231.229 198.764 232.396 202.973 232.396 207.4C232.396 211.987 231.124 216.429 228.581 220.727C226.054 225.04 222.232 228.565 217.113 231.301C212.011 234.038 205.637 235.406 197.992 235.406C197.67 235.406 196.865 235.406 195.577 235.406C194.29 235.406 192.978 235.406 191.642 235.406C190.322 235.406 189.461 235.406 189.059 235.406C189.059 235.406 189.059 235.446 189.059 235.526C189.059 235.607 189.059 235.647 189.059 235.647C189.059 235.647 189.059 235.663 189.059 235.695C189.059 235.744 189.059 235.784 189.059 235.816C189.059 235.864 189.059 235.889 189.059 235.889H216.461L235.052 271.741H177.711C176.182 267.637 174.629 263.533 173.052 259.428C171.49 255.324 169.921 251.22 168.344 247.115C166.783 243.011 165.197 238.907 163.588 234.802H177.591C179.2 234.802 180.625 234.561 181.864 234.078C183.12 233.595 184.15 232.951 184.954 232.146C185.759 231.342 186.363 230.432 186.765 229.418C187.168 228.42 187.369 227.398 187.369 226.352C187.369 224.903 187.007 223.535 186.282 222.248C185.558 220.96 184.472 219.914 183.023 219.109C181.574 218.304 179.764 217.902 177.591 217.902H163.829C163.829 217.902 163.805 217.918 163.757 217.95C163.724 217.998 163.684 218.023 163.636 218.023C163.604 218.023 163.588 218.063 163.588 218.143C163.588 223.374 163.588 227.213 163.588 229.66C163.588 232.122 163.588 233.651 163.588 234.247C163.588 234.859 163.588 235.084 163.588 234.923C163.588 234.923 163.588 235.341 163.588 236.178C163.588 237.031 163.588 238.182 163.588 239.631C163.588 241.079 163.588 242.729 163.588 244.58C163.588 247.236 163.588 250.173 163.588 253.392C163.588 256.612 163.588 259.807 163.588 262.977C163.588 266.164 163.588 269.086 163.588 271.741H113.49C113.49 266.591 113.49 261.416 113.49 256.217C113.49 251.035 113.49 245.868 113.49 240.717C113.49 235.567 113.49 230.392 113.49 225.193C113.49 220.01 113.49 214.844 113.49 209.693C113.49 204.945 113.49 200.197 113.49 195.449C113.49 190.7 113.49 185.952 113.49 181.204ZM339.351 181.204V211.625H286.815C286.734 211.625 286.694 211.625 286.694 211.625V218.264C286.694 218.345 286.694 218.401 286.694 218.433C286.694 218.481 286.694 218.505 286.694 218.505C286.694 218.505 286.718 218.505 286.767 218.505C286.799 218.505 286.815 218.505 286.815 218.505H337.54V235.526H286.815C286.815 235.526 286.799 235.526 286.767 235.526C286.718 235.526 286.694 235.543 286.694 235.575C286.694 235.623 286.694 235.687 286.694 235.768V242.528C286.694 242.528 286.718 242.528 286.767 242.528C286.799 242.528 286.815 242.528 286.815 242.528H340.051V271.741H237.804C237.804 266.993 237.804 262.221 237.804 257.424C237.804 252.644 237.804 247.88 237.804 243.132C237.804 238.383 237.804 233.611 237.804 228.815C237.804 224.034 237.804 219.246 237.804 214.449C237.804 209.669 237.804 204.905 237.804 200.157C237.804 197.018 237.804 193.855 237.804 190.668C237.804 187.497 237.804 184.343 237.804 181.204H339.351ZM415.981 231.181V181.204H462.457C462.457 184.182 462.457 187.184 462.457 190.21C462.457 193.219 462.457 196.229 462.457 199.239C462.457 202.265 462.457 205.283 462.457 208.293C462.457 211.319 462.457 214.337 462.457 217.347C462.457 220.373 462.457 223.415 462.457 226.473C462.457 234.038 462.457 241.578 462.457 249.095C462.457 256.628 462.457 264.176 462.457 271.741H406.566L391.355 228.283C391.355 228.283 391.355 228.259 391.355 228.211C391.355 228.179 391.339 228.163 391.307 228.163C391.259 228.163 391.218 228.163 391.186 228.163C391.138 228.163 391.114 228.179 391.114 228.211C391.114 228.259 391.114 228.283 391.114 228.283C391.114 235.366 391.114 242.609 391.114 250.012C391.114 257.416 391.114 264.659 391.114 271.741H344.638C344.638 265.706 344.638 259.67 344.638 253.634C344.638 247.598 344.638 241.562 344.638 235.526C344.638 229.491 344.638 223.455 344.638 217.419C344.638 211.383 344.638 205.347 344.638 199.312C344.638 193.276 344.638 187.24 344.638 181.204H398.719L415.74 231.301C415.74 231.301 415.764 231.301 415.812 231.301C415.845 231.301 415.885 231.301 415.933 231.301C415.965 231.301 415.981 231.277 415.981 231.229C415.981 231.197 415.981 231.181 415.981 231.181ZM467.286 181.204H539.233C546.798 181.204 553.502 182.025 559.344 183.667C565.171 185.325 570.177 187.602 574.361 190.499C578.546 193.396 581.966 196.752 584.622 200.567C587.278 204.398 589.25 208.486 590.537 212.832C591.825 217.178 592.469 221.604 592.469 226.111C592.469 231.825 591.447 237.394 589.403 242.818C587.342 248.258 584.164 253.151 579.866 257.497C575.552 261.843 570.04 265.303 563.328 267.878C556.6 270.454 548.568 271.741 539.233 271.741H467.286C467.286 266.591 467.286 261.456 467.286 256.338C467.286 251.236 467.286 246.125 467.286 241.007C467.286 235.905 467.286 230.802 467.286 225.7C467.286 220.582 467.286 215.447 467.286 210.297C467.286 205.468 467.286 200.615 467.286 195.738C467.286 190.878 467.286 186.033 467.286 181.204ZM529.576 215.97H515.21C515.21 215.97 515.194 215.97 515.162 215.97C515.114 215.97 515.09 215.97 515.09 215.97C515.09 215.97 515.09 215.987 515.09 216.019C515.09 216.067 515.09 216.131 515.09 216.212V236.734C515.09 236.814 515.09 236.87 515.09 236.903C515.09 236.951 515.09 236.975 515.09 236.975C515.09 236.975 515.114 236.975 515.162 236.975C515.194 236.975 515.21 236.975 515.21 236.975H529.817C531.587 236.975 533.181 236.693 534.597 236.13C535.998 235.567 537.181 234.802 538.146 233.836C539.112 232.871 539.861 231.744 540.392 230.456C540.907 229.169 541.164 227.841 541.164 226.473C541.164 224.541 540.706 222.771 539.788 221.161C538.855 219.552 537.543 218.28 535.853 217.347C534.163 216.429 532.07 215.97 529.576 215.97ZM663.088 181.204H713.185C713.185 186.274 713.185 191.344 713.185 196.414C713.185 201.484 713.185 206.555 713.185 211.625C713.185 216.695 713.185 221.805 713.185 226.956C713.185 234.36 713.185 241.804 713.185 249.288C713.185 256.773 713.185 264.257 713.185 271.741H663.088C663.088 266.832 663.088 261.923 663.088 257.014C663.088 252.105 663.088 247.196 663.088 242.287C663.088 242.206 663.064 242.142 663.015 242.093C662.983 242.061 662.927 242.045 662.846 242.045H646.308C646.228 242.045 646.188 242.061 646.188 242.093C646.188 242.142 646.188 242.206 646.188 242.287C646.188 247.196 646.188 252.105 646.188 257.014C646.188 261.923 646.188 266.832 646.188 271.741H596.09C596.09 266.913 596.09 262.084 596.09 257.255C596.09 252.427 596.09 247.598 596.09 242.769C596.09 237.941 596.09 233.112 596.09 228.283C596.09 223.455 596.09 218.626 596.09 213.798C596.09 208.969 596.09 204.14 596.09 199.312C596.09 196.253 596.09 193.219 596.09 190.21C596.09 187.184 596.09 184.182 596.09 181.204H646.188C646.188 185.067 646.188 188.97 646.188 192.914C646.188 196.857 646.188 200.776 646.188 204.671C646.188 208.583 646.188 212.51 646.188 216.453C646.188 216.534 646.188 216.59 646.188 216.622C646.188 216.671 646.228 216.695 646.308 216.695H662.846C662.927 216.695 662.983 216.671 663.015 216.622C663.064 216.59 663.088 216.534 663.088 216.453C663.088 210.578 663.088 204.704 663.088 198.829C663.088 192.954 663.088 187.079 663.088 181.204ZM768.111 271.741H718.014C718.014 265.947 718.014 260.153 718.014 254.358C718.014 248.564 718.014 242.769 718.014 236.975C718.014 231.181 718.014 225.386 718.014 219.592C718.014 213.798 718.014 208.003 718.014 202.209C718.014 198.668 718.014 195.143 718.014 191.634C718.014 188.141 718.014 184.665 718.014 181.204H768.111C768.111 189.01 768.111 196.793 768.111 204.551C768.111 212.325 768.111 220.115 768.111 227.921C768.111 232.75 768.111 237.595 768.111 242.456C768.111 247.333 768.111 252.201 768.111 257.062C768.111 261.939 768.111 266.832 768.111 271.741ZM842.448 181.204H894.598C892.827 187.24 891.041 193.276 889.238 199.312C887.419 205.347 885.608 211.383 883.806 217.419C881.987 223.455 880.176 229.491 878.373 235.526C876.555 241.562 874.744 247.598 872.941 253.634C871.122 259.67 869.288 265.706 867.437 271.741H797.542C794.564 261.682 791.57 251.622 788.56 241.562C785.534 231.503 782.533 221.443 779.555 211.383C776.577 201.323 773.559 191.264 770.501 181.204H824.341C824.824 184.343 825.331 187.457 825.862 190.548C826.377 193.654 826.876 196.777 827.359 199.915C827.842 203.054 828.324 206.192 828.807 209.331C829.29 212.47 829.773 215.608 830.256 218.747C830.739 221.886 831.246 225.008 831.777 228.114C832.292 231.205 832.791 234.319 833.274 237.458C833.354 237.458 833.395 237.458 833.395 237.458C833.395 237.458 833.419 237.458 833.467 237.458C833.499 237.458 833.515 237.458 833.515 237.458C833.918 234.802 834.344 232.122 834.795 229.418C835.229 226.73 835.648 224.058 836.05 221.403C836.453 218.747 836.879 216.067 837.33 213.363C837.764 210.675 838.207 207.979 838.658 205.275C839.092 202.587 839.511 199.915 839.913 197.259C840.316 194.604 840.742 191.924 841.193 189.22C841.627 186.532 842.046 183.86 842.448 181.204ZM998.535 181.204V211.625H946.023C945.942 211.625 945.902 211.625 945.902 211.625V218.264C945.902 218.345 945.902 218.401 945.902 218.433C945.902 218.481 945.902 218.505 945.902 218.505C945.902 218.505 945.926 218.505 945.975 218.505C946.007 218.505 946.023 218.505 946.023 218.505H996.724V235.526H946.023C946.023 235.526 946.007 235.526 945.975 235.526C945.926 235.526 945.902 235.543 945.902 235.575C945.902 235.623 945.902 235.687 945.902 235.768V242.528C945.902 242.528 945.926 242.528 945.975 242.528C946.007 242.528 946.023 242.528 946.023 242.528H999.259V271.741H897.012C897.012 266.993 897.012 262.221 897.012 257.424C897.012 252.644 897.012 247.88 897.012 243.132C897.012 238.383 897.012 233.611 897.012 228.815C897.012 224.034 897.012 219.246 897.012 214.449C897.012 209.669 897.012 204.905 897.012 200.157C897.012 197.018 897.012 193.855 897.012 190.668C897.012 187.497 897.012 184.343 897.012 181.204H998.535Z" fill="#F4AB4F"/>
</g>
</g>
</g>
</g>
<g clip-path="url(#clip6_4287_142)">
<g clip-path="url(#clip7_4287_142)">
<path d="M468.219 159.831C441.89 159.831 420.547 138.489 420.547 112.159V48.5968C420.547 22.2676 441.89 0.924805 468.219 0.924805H531.781C558.111 0.924805 579.453 22.2676 579.453 48.5968V112.159C579.453 138.489 558.111 159.831 531.781 159.831H468.219Z" fill="#F4AB4F"/>
<g clip-path="url(#clip8_4287_142)">
<g clip-path="url(#clip9_4287_142)">
<path d="M500 32.7061C473.67 32.7061 452.328 54.0483 452.328 80.3777C452.328 106.707 473.67 128.049 500 128.049C526.329 128.049 547.672 106.707 547.672 80.3777C547.672 54.0483 526.329 32.7061 500 32.7061ZM493.575 106.304C489.281 110.602 482.006 110.29 474.129 102.417C466.256 94.5399 467.649 80.3777 467.649 80.3777C467.649 80.3777 481.811 78.9843 489.688 86.8611C497.561 94.7343 497.873 102.01 493.575 106.304ZM488.999 67.5431C488.999 56.4062 500 47.3743 500 47.3743C500 47.3743 511.001 56.4062 511.001 67.5431C511.001 78.6799 506.072 84.0448 500 84.0448C493.927 84.0448 488.999 78.6799 488.999 67.5431ZM525.871 102.417C517.994 110.29 510.719 110.602 506.424 106.304C502.127 102.01 502.438 94.7343 510.312 86.8574C518.188 78.9843 532.351 80.3777 532.351 80.3777C532.351 80.3777 533.744 94.5399 525.871 102.417Z" fill="#D62176"/>
</g>
</g>
</g>
</g>
</g>
</g>
<defs>
<clipPath id="clip0_4287_142">
<rect width="998.566" height="270.817" fill="white" transform="translate(0.716797 0.924805)"/>
</clipPath>
<clipPath id="clip1_4287_142">
<rect width="998.566" height="270.817" fill="white" transform="translate(0.716797 0.924805)"/>
</clipPath>
<clipPath id="clip2_4287_142">
<rect width="998.566" height="90.5373" fill="white" transform="translate(0.716797 181.204)"/>
</clipPath>
<clipPath id="clip3_4287_142">
<rect width="998.566" height="90.5373" fill="white" transform="translate(0.716797 181.204)"/>
</clipPath>
<clipPath id="clip4_4287_142">
<rect width="998.566" height="90.5373" fill="white" transform="translate(0.716797 181.204)"/>
</clipPath>
<clipPath id="clip5_4287_142">
<rect width="998.566" height="90.5373" fill="white" transform="translate(0.716797 181.204)"/>
</clipPath>
<clipPath id="clip6_4287_142">
<rect width="158.906" height="158.906" fill="white" transform="translate(420.547 0.924805)"/>
</clipPath>
<clipPath id="clip7_4287_142">
<rect width="158.906" height="158.906" fill="white" transform="translate(420.547 0.924805)"/>
</clipPath>
<clipPath id="clip8_4287_142">
<rect width="95.3434" height="95.3434" fill="white" transform="translate(452.328 32.7061)"/>
</clipPath>
<clipPath id="clip9_4287_142">
<rect width="95.3434" height="95.3434" fill="white" transform="translate(452.328 32.7061)"/>
</clipPath>
</defs>
</svg>
