<svg width="160" height="160" viewBox="0 0 160 160" fill="none" xmlns="http://www.w3.org/2000/svg">
<g clip-path="url(#clip0_4287_157)">
<g clip-path="url(#clip1_4287_157)">
<path d="M48.2189 159.831C21.8896 159.831 0.546875 138.489 0.546875 112.159V48.5968C0.546875 22.2676 21.8896 0.924805 48.2189 0.924805H111.781C138.111 0.924805 159.453 22.2676 159.453 48.5968V112.159C159.453 138.489 138.111 159.831 111.781 159.831H48.2189Z" fill="#F4AB4F"/>
<g clip-path="url(#clip2_4287_157)">
<g clip-path="url(#clip3_4287_157)">
<path d="M79.9998 32.7061C53.6704 32.7061 32.3281 54.0483 32.3281 80.3777C32.3281 106.707 53.6704 128.049 79.9998 128.049C106.329 128.049 127.672 106.707 127.672 80.3777C127.672 54.0483 106.329 32.7061 79.9998 32.7061ZM73.5751 106.304C69.281 110.602 62.0056 110.29 54.1288 102.417C46.2556 94.5399 47.6491 80.3777 47.6491 80.3777C47.6491 80.3777 61.8112 78.9843 69.6881 86.8611C77.5612 94.7343 77.8729 102.01 73.5751 106.304ZM68.9987 67.5431C68.9987 56.4062 79.9998 47.3743 79.9998 47.3743C79.9998 47.3743 91.001 56.4062 91.001 67.5431C91.001 78.6799 86.0725 84.0448 79.9998 84.0448C73.9272 84.0448 68.9987 78.6799 68.9987 67.5431ZM105.871 102.417C97.994 110.29 90.7186 110.602 86.4245 106.304C82.1267 102.01 82.4384 94.7343 90.3116 86.8574C98.1884 78.9843 112.351 80.3777 112.351 80.3777C112.351 80.3777 113.744 94.5399 105.871 102.417Z" fill="#D62176"/>
</g>
</g>
</g>
</g>
<defs>
<clipPath id="clip0_4287_157">
<rect width="158.906" height="158.906" fill="white" transform="translate(0.546875 0.924805)"/>
</clipPath>
<clipPath id="clip1_4287_157">
<rect width="158.906" height="158.906" fill="white" transform="translate(0.546875 0.924805)"/>
</clipPath>
<clipPath id="clip2_4287_157">
<rect width="95.3434" height="95.3434" fill="white" transform="translate(32.3281 32.7061)"/>
</clipPath>
<clipPath id="clip3_4287_157">
<rect width="95.3434" height="95.3434" fill="white" transform="translate(32.3281 32.7061)"/>
</clipPath>
</defs>
</svg>
